<svg width="210" height="35" viewBox="0 0 210 35" fill="none" xmlns="http://www.w3.org/2000/svg">
<g clip-path="url(#clip0_689_135)">
<rect width="210" height="35" rx="17.5" fill="#CA265B"/>
<path d="M0 0L210 0V24C210 24 145.627 22.8694 105 21.3333C63.4463 19.7622 0 16 0 16L0 0Z" fill="url(#paint0_linear_689_135)" fill-opacity="0.2"/>
<path d="M68.2247 23.08C67.478 23.08 66.7794 22.92 66.1287 22.6C65.4887 22.2693 64.9287 21.832 64.4487 21.288C63.9687 20.7333 63.5954 20.1147 63.3287 19.432C63.062 18.7387 62.9287 18.024 62.9287 17.288C62.9287 16.52 63.062 15.7947 63.3287 15.112C63.5954 14.4187 63.9634 13.8053 64.4327 13.272C64.9127 12.7387 65.4727 12.3227 66.1127 12.024C66.7634 11.7147 67.4674 11.56 68.2247 11.56C69.3234 11.56 70.23 11.7893 70.9447 12.248C71.6594 12.7067 72.198 13.304 72.5607 14.04L71.4567 14.808C71.126 14.1467 70.6727 13.656 70.0967 13.336C69.5207 13.016 68.886 12.856 68.1927 12.856C67.6167 12.856 67.094 12.9787 66.6247 13.224C66.1554 13.4693 65.75 13.8053 65.4087 14.232C65.078 14.648 64.822 15.1227 64.6407 15.656C64.47 16.1893 64.3847 16.744 64.3847 17.32C64.3847 17.928 64.4807 18.504 64.6727 19.048C64.8754 19.5813 65.158 20.056 65.5207 20.472C65.8834 20.8773 66.3047 21.1973 66.7847 21.432C67.2647 21.6667 67.782 21.784 68.3367 21.784C68.9874 21.784 69.606 21.6187 70.1927 21.288C70.7794 20.9573 71.334 20.4507 71.8567 19.768V21.256C70.8327 22.472 69.622 23.08 68.2247 23.08ZM71.6807 18.424H69.2327V17.336H72.8967V23H71.6807V18.424ZM78.5586 23.16C77.9292 23.16 77.3532 23.048 76.8306 22.824C76.3186 22.5893 75.8706 22.2747 75.4866 21.88C75.1132 21.4747 74.8199 21.0107 74.6066 20.488C74.4039 19.9653 74.3026 19.4107 74.3026 18.824C74.3026 18.0347 74.4839 17.3147 74.8466 16.664C75.2092 16.0133 75.7106 15.4907 76.3506 15.096C77.0012 14.7013 77.7426 14.504 78.5746 14.504C79.4172 14.504 80.1479 14.7067 80.7666 15.112C81.3959 15.5067 81.8812 16.0293 82.2226 16.68C82.5746 17.32 82.7506 18.0133 82.7506 18.76C82.7506 18.8667 82.7452 18.9733 82.7346 19.08C82.7346 19.176 82.7292 19.2507 82.7186 19.304H75.7906C75.8332 19.848 75.9826 20.3333 76.2386 20.76C76.5052 21.176 76.8466 21.5067 77.2626 21.752C77.6786 21.9867 78.1266 22.104 78.6066 22.104C79.1186 22.104 79.5986 21.976 80.0466 21.72C80.5052 21.464 80.8199 21.128 80.9906 20.712L82.2066 21.048C82.0252 21.4533 81.7532 21.816 81.3906 22.136C81.0386 22.456 80.6172 22.7067 80.1266 22.888C79.6466 23.0693 79.1239 23.16 78.5586 23.16ZM75.7426 18.328H81.4386C81.3959 17.784 81.2412 17.304 80.9746 16.888C80.7079 16.472 80.3666 16.1467 79.9506 15.912C79.5346 15.6773 79.0759 15.56 78.5746 15.56C78.0839 15.56 77.6306 15.6773 77.2146 15.912C76.7986 16.1467 76.4572 16.472 76.1906 16.888C75.9346 17.304 75.7852 17.784 75.7426 18.328ZM88.5576 22.584C88.4402 22.6373 88.2802 22.7067 88.0776 22.792C87.8749 22.8773 87.6402 22.952 87.3736 23.016C87.1069 23.08 86.8242 23.112 86.5256 23.112C86.1842 23.112 85.8696 23.0533 85.5816 22.936C85.2936 22.808 85.0642 22.616 84.8936 22.36C84.7229 22.0933 84.6376 21.7627 84.6376 21.368V15.752H83.5016V14.648H84.6376V11.864H86.0456V14.648H87.9176V15.752H86.0456V20.936C86.0669 21.2347 86.1682 21.4587 86.3496 21.608C86.5309 21.7467 86.7442 21.816 86.9896 21.816C87.2669 21.816 87.5229 21.768 87.7576 21.672C87.9922 21.576 88.1469 21.5067 88.2216 21.464L88.5576 22.584ZM100.805 14.024C100.677 13.8747 100.507 13.7307 100.293 13.592C100.08 13.4533 99.8401 13.3307 99.5734 13.224C99.3068 13.1067 99.0134 13.016 98.6934 12.952C98.3841 12.8773 98.0588 12.84 97.7174 12.84C96.8428 12.84 96.1974 13.0053 95.7814 13.336C95.3654 13.6667 95.1574 14.12 95.1574 14.696C95.1574 15.1013 95.2641 15.4213 95.4774 15.656C95.6908 15.8907 96.0161 16.0827 96.4534 16.232C96.9014 16.3813 97.4668 16.536 98.1494 16.696C98.9388 16.8667 99.6214 17.0747 100.197 17.32C100.773 17.5653 101.216 17.896 101.525 18.312C101.835 18.7173 101.989 19.2613 101.989 19.944C101.989 20.488 101.883 20.9627 101.669 21.368C101.467 21.7627 101.179 22.0933 100.805 22.36C100.432 22.616 99.9948 22.808 99.4934 22.936C98.9921 23.0533 98.4481 23.112 97.8614 23.112C97.2854 23.112 96.7201 23.0533 96.1654 22.936C95.6214 22.808 95.1041 22.6267 94.6134 22.392C94.1228 22.1573 93.6641 21.864 93.2374 21.512L93.9254 20.296C94.0961 20.4773 94.3148 20.6587 94.5814 20.84C94.8588 21.0107 95.1681 21.1707 95.5094 21.32C95.8614 21.4693 96.2401 21.592 96.6454 21.688C97.0508 21.7733 97.4668 21.816 97.8934 21.816C98.7041 21.816 99.3334 21.672 99.7814 21.384C100.229 21.0853 100.453 20.6533 100.453 20.088C100.453 19.6613 100.325 19.32 100.069 19.064C99.8241 18.808 99.4561 18.5947 98.9654 18.424C98.4748 18.2533 97.8774 18.0827 97.1734 17.912C96.4054 17.72 95.7601 17.512 95.2374 17.288C94.7148 17.0533 94.3201 16.7493 94.0534 16.376C93.7974 16.0027 93.6694 15.5173 93.6694 14.92C93.6694 14.1947 93.8454 13.5813 94.1974 13.08C94.5494 12.5787 95.0348 12.2 95.6534 11.944C96.2721 11.688 96.9708 11.56 97.7494 11.56C98.2614 11.56 98.7361 11.6133 99.1734 11.72C99.6214 11.8267 100.037 11.976 100.421 12.168C100.805 12.36 101.157 12.5893 101.477 12.856L100.805 14.024ZM107.823 22.584C107.706 22.6373 107.546 22.7067 107.343 22.792C107.141 22.8773 106.906 22.952 106.639 23.016C106.373 23.08 106.09 23.112 105.791 23.112C105.45 23.112 105.135 23.0533 104.847 22.936C104.559 22.808 104.33 22.616 104.159 22.36C103.989 22.0933 103.903 21.7627 103.903 21.368V15.752H102.767V14.648H103.903V11.864H105.311V14.648H107.183V15.752H105.311V20.936C105.333 21.2347 105.434 21.4587 105.615 21.608C105.797 21.7467 106.01 21.816 106.255 21.816C106.533 21.816 106.789 21.768 107.023 21.672C107.258 21.576 107.413 21.5067 107.487 21.464L107.823 22.584ZM108.472 20.584C108.472 20.0507 108.622 19.592 108.92 19.208C109.23 18.8133 109.651 18.5093 110.184 18.296C110.718 18.0827 111.336 17.976 112.04 17.976C112.414 17.976 112.808 18.008 113.224 18.072C113.64 18.1253 114.008 18.2107 114.328 18.328V17.72C114.328 17.08 114.136 16.5787 113.752 16.216C113.368 15.8427 112.824 15.656 112.12 15.656C111.662 15.656 111.219 15.7413 110.792 15.912C110.376 16.072 109.934 16.3067 109.464 16.616L108.952 15.624C109.496 15.2507 110.04 14.9733 110.584 14.792C111.128 14.6 111.694 14.504 112.28 14.504C113.347 14.504 114.19 14.8027 114.808 15.4C115.427 15.9867 115.736 16.808 115.736 17.864V21.4C115.736 21.5707 115.768 21.6987 115.832 21.784C115.907 21.8587 116.024 21.9013 116.184 21.912V23C116.046 23.0213 115.923 23.0373 115.816 23.048C115.72 23.0587 115.64 23.064 115.576 23.064C115.246 23.064 114.995 22.9733 114.824 22.792C114.664 22.6107 114.574 22.4187 114.552 22.216L114.52 21.688C114.158 22.1573 113.683 22.52 113.096 22.776C112.51 23.032 111.928 23.16 111.352 23.16C110.798 23.16 110.302 23.048 109.864 22.824C109.427 22.5893 109.086 22.28 108.84 21.896C108.595 21.5013 108.472 21.064 108.472 20.584ZM113.912 21.176C114.04 21.0267 114.142 20.8773 114.216 20.728C114.291 20.568 114.328 20.4347 114.328 20.328V19.288C113.998 19.16 113.651 19.064 113.288 19C112.926 18.9253 112.568 18.888 112.216 18.888C111.502 18.888 110.92 19.032 110.472 19.32C110.035 19.5973 109.816 19.9813 109.816 20.472C109.816 20.7387 109.886 21 110.024 21.256C110.174 21.5013 110.387 21.704 110.664 21.864C110.952 22.024 111.304 22.104 111.72 22.104C112.158 22.104 112.574 22.0187 112.968 21.848C113.363 21.6667 113.678 21.4427 113.912 21.176ZM122.404 15.88C121.7 15.8907 121.076 16.072 120.532 16.424C119.998 16.7653 119.62 17.24 119.396 17.848V23H117.988V14.648H119.3V16.584C119.588 16.008 119.966 15.544 120.436 15.192C120.916 14.8293 121.417 14.6267 121.94 14.584C122.046 14.584 122.137 14.584 122.212 14.584C122.286 14.584 122.35 14.5893 122.404 14.6V15.88ZM128.12 22.584C128.003 22.6373 127.843 22.7067 127.64 22.792C127.437 22.8773 127.203 22.952 126.936 23.016C126.669 23.08 126.387 23.112 126.088 23.112C125.747 23.112 125.432 23.0533 125.144 22.936C124.856 22.808 124.627 22.616 124.456 22.36C124.285 22.0933 124.2 21.7627 124.2 21.368V15.752H123.064V14.648H124.2V11.864H125.608V14.648H127.48V15.752H125.608V20.936C125.629 21.2347 125.731 21.4587 125.912 21.608C126.093 21.7467 126.307 21.816 126.552 21.816C126.829 21.816 127.085 21.768 127.32 21.672C127.555 21.576 127.709 21.5067 127.784 21.464L128.12 22.584ZM133.012 23.16C132.382 23.16 131.806 23.048 131.284 22.824C130.772 22.5893 130.324 22.2747 129.94 21.88C129.566 21.4747 129.273 21.0107 129.06 20.488C128.857 19.9653 128.756 19.4107 128.756 18.824C128.756 18.0347 128.937 17.3147 129.3 16.664C129.662 16.0133 130.164 15.4907 130.804 15.096C131.454 14.7013 132.196 14.504 133.028 14.504C133.87 14.504 134.601 14.7067 135.22 15.112C135.849 15.5067 136.334 16.0293 136.676 16.68C137.028 17.32 137.204 18.0133 137.204 18.76C137.204 18.8667 137.198 18.9733 137.188 19.08C137.188 19.176 137.182 19.2507 137.172 19.304H130.244C130.286 19.848 130.436 20.3333 130.692 20.76C130.958 21.176 131.3 21.5067 131.716 21.752C132.132 21.9867 132.58 22.104 133.06 22.104C133.572 22.104 134.052 21.976 134.5 21.72C134.958 21.464 135.273 21.128 135.444 20.712L136.66 21.048C136.478 21.4533 136.206 21.816 135.844 22.136C135.492 22.456 135.07 22.7067 134.58 22.888C134.1 23.0693 133.577 23.16 133.012 23.16ZM130.196 18.328H135.892C135.849 17.784 135.694 17.304 135.428 16.888C135.161 16.472 134.82 16.1467 134.404 15.912C133.988 15.6773 133.529 15.56 133.028 15.56C132.537 15.56 132.084 15.6773 131.668 15.912C131.252 16.1467 130.91 16.472 130.644 16.888C130.388 17.304 130.238 17.784 130.196 18.328ZM138.225 18.84C138.225 18.0507 138.385 17.3307 138.705 16.68C139.035 16.0187 139.483 15.4907 140.049 15.096C140.625 14.7013 141.281 14.504 142.017 14.504C142.689 14.504 143.291 14.68 143.825 15.032C144.358 15.384 144.774 15.8107 145.073 16.312V11.32H146.481V21.4C146.481 21.5707 146.513 21.6987 146.577 21.784C146.651 21.8587 146.769 21.9013 146.929 21.912V23C146.662 23.0427 146.454 23.064 146.305 23.064C146.027 23.064 145.782 22.968 145.569 22.776C145.366 22.584 145.265 22.3707 145.265 22.136V21.432C144.934 21.9653 144.491 22.3867 143.937 22.696C143.382 23.0053 142.806 23.16 142.209 23.16C141.633 23.16 141.099 23.048 140.609 22.824C140.129 22.5893 139.707 22.2693 139.345 21.864C138.993 21.4587 138.715 21 138.513 20.488C138.321 19.9653 138.225 19.416 138.225 18.84ZM145.073 20.072V17.672C144.945 17.3093 144.737 16.984 144.449 16.696C144.161 16.3973 143.835 16.1627 143.473 15.992C143.121 15.8107 142.769 15.72 142.417 15.72C142.001 15.72 141.622 15.8107 141.281 15.992C140.95 16.1627 140.662 16.3973 140.417 16.696C140.182 16.984 140.001 17.3147 139.873 17.688C139.745 18.0613 139.681 18.4507 139.681 18.856C139.681 19.272 139.75 19.6667 139.889 20.04C140.038 20.4133 140.241 20.744 140.497 21.032C140.763 21.32 141.067 21.544 141.409 21.704C141.761 21.864 142.139 21.944 142.545 21.944C142.801 21.944 143.062 21.896 143.329 21.8C143.606 21.704 143.867 21.5707 144.113 21.4C144.358 21.2293 144.566 21.032 144.737 20.808C144.907 20.5733 145.019 20.328 145.073 20.072Z" fill="white"/>
</g>
<defs>
<linearGradient id="paint0_linear_689_135" x1="105" y1="0" x2="105" y2="24" gradientUnits="userSpaceOnUse">
<stop stop-color="white" stop-opacity="0"/>
<stop offset="1" stop-color="white"/>
</linearGradient>
<clipPath id="clip0_689_135">
<rect width="210" height="35" rx="17.5" fill="white"/>
</clipPath>
</defs>
</svg>
