<svg width="138" height="48" viewBox="0 0 138 48" fill="none" xmlns="http://www.w3.org/2000/svg">
<g clip-path="url(#clip0_371_128)">
<path d="M2 24.7601V23.2399C2 19.7991 2 18.0787 3.03419 16.9359C4.06838 15.7932 5.78024 15.622 9.20397 15.2796L10.5792 15.1421C11.2825 15.0717 11.6342 15.0366 11.9471 14.8883C12.26 14.74 12.5099 14.4901 13.0096 13.9903L20.2745 6.7255C20.4717 6.5283 20.5703 6.42965 20.6447 6.36841C21.7153 5.4863 23.3369 5.93546 23.8011 7.24269C23.8334 7.33346 23.8672 7.46876 23.9348 7.73935L23.9456 7.78283C23.98 7.92737 23.9982 8.07529 23.9999 8.22387L24 8.26865V39.7313L23.9999 39.7761C23.9982 39.9247 23.98 40.0726 23.9456 40.2172L23.9348 40.2606C23.8672 40.5312 23.8334 40.6665 23.8011 40.7573C23.3369 42.0645 21.7153 42.5137 20.6447 41.6316C20.5704 41.5704 20.4716 41.4715 20.2745 41.2745L13.0096 34.0096C12.5099 33.5099 12.26 33.26 11.9471 33.1117C11.6342 32.9634 11.2825 32.9282 10.5792 32.8579L9.20397 32.7204C5.78024 32.378 4.06838 32.2068 3.03419 31.0641C2 29.9213 2 28.2009 2 24.7601Z" fill="white"/>
<path d="M28 24.1878V23.8122C28 22.6963 28 22.1384 28.2364 21.6964C28.3598 21.4657 28.5272 21.2614 28.7293 21.0952C29.1163 20.7767 29.6634 20.6673 30.7576 20.4485C31.6599 20.268 32.1111 20.1778 32.459 19.9305C32.6414 19.8008 32.8008 19.6414 32.9305 19.459C33.1778 19.1111 33.268 18.6599 33.4485 17.7575C33.6673 16.6634 33.7767 16.1163 34.0952 15.7293C34.2614 15.5272 34.4657 15.3597 34.6964 15.2364C35.1384 15 35.6963 15 36.8122 15H37.1878C38.3037 15 38.8616 15 39.3036 15.2364C39.5343 15.3597 39.7386 15.5272 39.9048 15.7293C40.2233 16.1163 40.3327 16.6634 40.5515 17.7575C40.732 18.6599 40.8222 19.1111 41.0695 19.459C41.1992 19.6414 41.3586 19.8008 41.541 19.9305C41.8889 20.1778 42.3401 20.268 43.2424 20.4485C44.3366 20.6673 44.8837 20.7767 45.2707 21.0952C45.4728 21.2614 45.6403 21.4657 45.7636 21.6964C46 22.1384 46 22.6963 46 23.8122V24.1878C46 25.3037 46 25.8616 45.7636 26.3036C45.6403 26.5343 45.4728 26.7386 45.2707 26.9048C44.8837 27.2233 44.3366 27.3327 43.2424 27.5515C42.3401 27.732 41.8889 27.8222 41.541 28.0695C41.3586 28.1992 41.1992 28.3586 41.0695 28.541C40.8222 28.8889 40.732 29.3401 40.5515 30.2424C40.3327 31.3366 40.2233 31.8837 39.9048 32.2707C39.7386 32.4728 39.5343 32.6402 39.3036 32.7636C38.8616 33 38.3037 33 37.1878 33H36.8122C35.6963 33 35.1384 33 34.6964 32.7636C34.4657 32.6402 34.2614 32.4728 34.0952 32.2707C33.7767 31.8837 33.6673 31.3366 33.4485 30.2424C33.268 29.3401 33.1778 28.8889 32.9305 28.541C32.8008 28.3586 32.6414 28.1992 32.459 28.0695C32.1111 27.8222 31.6599 27.732 30.7576 27.5515C29.6634 27.3327 29.1163 27.2233 28.7293 26.9048C28.5272 26.7386 28.3598 26.5343 28.2364 26.3036C28 25.8616 28 25.3037 28 24.1878Z" fill="white"/>
<path d="M68.604 32L64.356 19.376H69.036L71.292 27.944L73.572 19.376H77.82L73.572 32H68.604ZM84.8016 32.24C83.6816 32.24 82.6896 32.064 81.8256 31.712C80.9616 31.36 80.2336 30.88 79.6416 30.272C79.0656 29.648 78.6256 28.944 78.3216 28.16C78.0336 27.376 77.8896 26.552 77.8896 25.688C77.8896 24.824 78.0336 24 78.3216 23.216C78.6256 22.416 79.0656 21.712 79.6416 21.104C80.2336 20.496 80.9616 20.016 81.8256 19.664C82.6896 19.312 83.6816 19.136 84.8016 19.136C85.9376 19.136 86.9296 19.312 87.7776 19.664C88.6416 20.016 89.3616 20.496 89.9376 21.104C90.5296 21.712 90.9696 22.416 91.2576 23.216C91.5616 24 91.7136 24.824 91.7136 25.688C91.7136 26.552 91.5616 27.376 91.2576 28.16C90.9696 28.944 90.5296 29.648 89.9376 30.272C89.3616 30.88 88.6416 31.36 87.7776 31.712C86.9296 32.064 85.9376 32.24 84.8016 32.24ZM82.5696 25.688C82.5696 26.248 82.6656 26.736 82.8576 27.152C83.0496 27.552 83.3136 27.864 83.6496 28.088C83.9856 28.296 84.3696 28.4 84.8016 28.4C85.2336 28.4 85.6176 28.296 85.9536 28.088C86.2896 27.864 86.5536 27.552 86.7456 27.152C86.9376 26.736 87.0336 26.248 87.0336 25.688C87.0336 25.128 86.9376 24.648 86.7456 24.248C86.5536 23.832 86.2896 23.52 85.9536 23.312C85.6176 23.088 85.2336 22.976 84.8016 22.976C84.3696 22.976 83.9856 23.088 83.6496 23.312C83.3136 23.52 83.0496 23.832 82.8576 24.248C82.6656 24.648 82.5696 25.128 82.5696 25.688ZM93.3278 32V19.376H97.8878V32H93.3278ZM93.3278 18.32V14.48H97.8878V18.32H93.3278ZM106.435 32.24C105.315 32.24 104.323 32.064 103.459 31.712C102.611 31.36 101.891 30.88 101.299 30.272C100.707 29.648 100.259 28.944 99.955 28.16C99.651 27.376 99.499 26.552 99.499 25.688C99.499 24.536 99.763 23.464 100.291 22.472C100.835 21.464 101.619 20.656 102.643 20.048C103.683 19.44 104.947 19.136 106.435 19.136C107.955 19.136 109.235 19.456 110.275 20.096C111.315 20.736 112.091 21.56 112.603 22.568L108.163 23.912C107.955 23.608 107.699 23.376 107.395 23.216C107.107 23.056 106.779 22.976 106.411 22.976C105.995 22.976 105.619 23.088 105.283 23.312C104.947 23.52 104.675 23.824 104.467 24.224C104.275 24.624 104.179 25.112 104.179 25.688C104.179 26.248 104.275 26.736 104.467 27.152C104.675 27.552 104.947 27.864 105.283 28.088C105.619 28.296 105.995 28.4 106.411 28.4C106.667 28.4 106.899 28.368 107.107 28.304C107.315 28.224 107.507 28.112 107.683 27.968C107.875 27.824 108.035 27.656 108.163 27.464L112.603 28.808C112.267 29.48 111.803 30.072 111.211 30.584C110.635 31.096 109.947 31.504 109.147 31.808C108.363 32.096 107.459 32.24 106.435 32.24ZM120.145 32.24C119.041 32.24 118.057 32.072 117.193 31.736C116.329 31.384 115.601 30.912 115.009 30.32C114.433 29.728 113.993 29.048 113.689 28.28C113.385 27.512 113.233 26.704 113.233 25.856C113.233 24.64 113.497 23.528 114.025 22.52C114.553 21.496 115.329 20.68 116.353 20.072C117.377 19.448 118.641 19.136 120.145 19.136C121.649 19.136 122.913 19.44 123.937 20.048C124.961 20.656 125.737 21.456 126.265 22.448C126.793 23.44 127.057 24.52 127.057 25.688C127.057 25.928 127.041 26.176 127.009 26.432C126.993 26.672 126.969 26.888 126.937 27.08H118.081C118.113 27.528 118.233 27.896 118.441 28.184C118.665 28.456 118.937 28.656 119.257 28.784C119.593 28.912 119.937 28.976 120.289 28.976C120.785 28.976 121.249 28.864 121.681 28.64C122.129 28.416 122.425 28.104 122.569 27.704L126.433 28.808C126.097 29.48 125.625 30.072 125.017 30.584C124.425 31.096 123.721 31.504 122.905 31.808C122.089 32.096 121.169 32.24 120.145 32.24ZM117.985 24.344H122.161C122.113 23.928 121.993 23.576 121.801 23.288C121.625 23 121.385 22.776 121.081 22.616C120.793 22.456 120.457 22.376 120.073 22.376C119.689 22.376 119.345 22.456 119.041 22.616C118.753 22.776 118.513 23 118.321 23.288C118.145 23.576 118.033 23.928 117.985 24.344ZM136.618 21.68V25.28H134.578V27.56H130.498V25.28H128.458V21.68H130.498V19.4H134.578V21.68H136.618Z" fill="white"/>
</g>
<defs>
<clipPath id="clip0_371_128">
<rect width="138" height="48" fill="white"/>
</clipPath>
</defs>
</svg>
