<svg width="210" height="35" viewBox="0 0 210 35" fill="none" xmlns="http://www.w3.org/2000/svg">
<rect width="210" height="35" rx="17.5" fill="#301A4F"/>
<path d="M56.5398 14.024C56.4118 13.8747 56.2411 13.7307 56.0278 13.592C55.8145 13.4533 55.5745 13.3307 55.3078 13.224C55.0411 13.1067 54.7478 13.016 54.4278 12.952C54.1185 12.8773 53.7931 12.84 53.4518 12.84C52.5771 12.84 51.9318 13.0053 51.5158 13.336C51.0998 13.6667 50.8918 14.12 50.8918 14.696C50.8918 15.1013 50.9985 15.4213 51.2118 15.656C51.4251 15.8907 51.7505 16.0827 52.1878 16.232C52.6358 16.3813 53.2011 16.536 53.8838 16.696C54.6731 16.8667 55.3558 17.0747 55.9318 17.32C56.5078 17.5653 56.9505 17.896 57.2598 18.312C57.5691 18.7173 57.7238 19.2613 57.7238 19.944C57.7238 20.488 57.6171 20.9627 57.4038 21.368C57.2011 21.7627 56.9131 22.0933 56.5398 22.36C56.1665 22.616 55.7291 22.808 55.2278 22.936C54.7265 23.0533 54.1825 23.112 53.5958 23.112C53.0198 23.112 52.4545 23.0533 51.8998 22.936C51.3558 22.808 50.8385 22.6267 50.3478 22.392C49.8571 22.1573 49.3985 21.864 48.9718 21.512L49.6598 20.296C49.8305 20.4773 50.0491 20.6587 50.3158 20.84C50.5931 21.0107 50.9025 21.1707 51.2438 21.32C51.5958 21.4693 51.9745 21.592 52.3798 21.688C52.7851 21.7733 53.2011 21.816 53.6278 21.816C54.4385 21.816 55.0678 21.672 55.5158 21.384C55.9638 21.0853 56.1878 20.6533 56.1878 20.088C56.1878 19.6613 56.0598 19.32 55.8038 19.064C55.5585 18.808 55.1905 18.5947 54.6998 18.424C54.2091 18.2533 53.6118 18.0827 52.9078 17.912C52.1398 17.72 51.4945 17.512 50.9718 17.288C50.4491 17.0533 50.0545 16.7493 49.7878 16.376C49.5318 16.0027 49.4038 15.5173 49.4038 14.92C49.4038 14.1947 49.5798 13.5813 49.9318 13.08C50.2838 12.5787 50.7691 12.2 51.3878 11.944C52.0065 11.688 52.7051 11.56 53.4838 11.56C53.9958 11.56 54.4705 11.6133 54.9078 11.72C55.3558 11.8267 55.7718 11.976 56.1558 12.168C56.5398 12.36 56.8918 12.5893 57.2118 12.856L56.5398 14.024ZM59.3138 19.656V14.648H60.7218V19.384C60.7218 20.2373 60.8711 20.8773 61.1698 21.304C61.4685 21.7307 61.9111 21.944 62.4978 21.944C62.8818 21.944 63.2498 21.864 63.6018 21.704C63.9645 21.5333 64.2898 21.2933 64.5778 20.984C64.8658 20.6747 65.0898 20.3067 65.2498 19.88V14.648H66.6578V21.4C66.6578 21.5707 66.6898 21.6987 66.7538 21.784C66.8285 21.8587 66.9458 21.9013 67.1058 21.912V23C66.9458 23.0213 66.8178 23.032 66.7218 23.032C66.6365 23.0427 66.5511 23.048 66.4658 23.048C66.1991 23.048 65.9698 22.968 65.7778 22.808C65.5858 22.6373 65.4845 22.4293 65.4738 22.184L65.4418 21.208C65.0791 21.8267 64.5885 22.3067 63.9698 22.648C63.3618 22.9893 62.6951 23.16 61.9698 23.16C61.0951 23.16 60.4338 22.8667 59.9858 22.28C59.5378 21.6827 59.3138 20.808 59.3138 19.656ZM73.4992 23.16C72.8165 23.16 72.2085 22.9893 71.6752 22.648C71.1419 22.3067 70.7205 21.8747 70.4112 21.352V26.408H69.0032V14.648H70.2512V16.216C70.5819 15.704 71.0139 15.2933 71.5472 14.984C72.0805 14.664 72.6619 14.504 73.2912 14.504C73.8672 14.504 74.3952 14.6213 74.8752 14.856C75.3552 15.0907 75.7712 15.4107 76.1232 15.816C76.4752 16.2213 76.7472 16.6853 76.9392 17.208C77.1419 17.72 77.2432 18.2587 77.2432 18.824C77.2432 19.6133 77.0832 20.3387 76.7632 21C76.4539 21.6613 76.0165 22.1893 75.4512 22.584C74.8859 22.968 74.2352 23.16 73.4992 23.16ZM73.0672 21.944C73.4832 21.944 73.8565 21.8587 74.1872 21.688C74.5285 21.5067 74.8165 21.272 75.0512 20.984C75.2965 20.6853 75.4832 20.3493 75.6112 19.976C75.7392 19.6027 75.8032 19.2187 75.8032 18.824C75.8032 18.408 75.7285 18.0133 75.5792 17.64C75.4405 17.2667 75.2379 16.936 74.9712 16.648C74.7152 16.36 74.4112 16.136 74.0592 15.976C73.7179 15.8053 73.3445 15.72 72.9392 15.72C72.6832 15.72 72.4165 15.768 72.1392 15.864C71.8725 15.96 71.6165 16.0987 71.3712 16.28C71.1259 16.4507 70.9179 16.648 70.7472 16.872C70.5765 17.096 70.4645 17.336 70.4112 17.592V19.976C70.5712 20.3387 70.7845 20.6693 71.0512 20.968C71.3179 21.2667 71.6272 21.5067 71.9792 21.688C72.3312 21.8587 72.6939 21.944 73.0672 21.944ZM83.4679 23.16C82.7853 23.16 82.1773 22.9893 81.6439 22.648C81.1106 22.3067 80.6893 21.8747 80.3799 21.352V26.408H78.9719V14.648H80.2199V16.216C80.5506 15.704 80.9826 15.2933 81.5159 14.984C82.0493 14.664 82.6306 14.504 83.2599 14.504C83.8359 14.504 84.3639 14.6213 84.8439 14.856C85.3239 15.0907 85.7399 15.4107 86.0919 15.816C86.4439 16.2213 86.7159 16.6853 86.9079 17.208C87.1106 17.72 87.2119 18.2587 87.2119 18.824C87.2119 19.6133 87.0519 20.3387 86.7319 21C86.4226 21.6613 85.9853 22.1893 85.4199 22.584C84.8546 22.968 84.2039 23.16 83.4679 23.16ZM83.0359 21.944C83.4519 21.944 83.8253 21.8587 84.1559 21.688C84.4973 21.5067 84.7853 21.272 85.0199 20.984C85.2653 20.6853 85.4519 20.3493 85.5799 19.976C85.7079 19.6027 85.7719 19.2187 85.7719 18.824C85.7719 18.408 85.6973 18.0133 85.5479 17.64C85.4093 17.2667 85.2066 16.936 84.9399 16.648C84.6839 16.36 84.3799 16.136 84.0279 15.976C83.6866 15.8053 83.3133 15.72 82.9079 15.72C82.6519 15.72 82.3853 15.768 82.1079 15.864C81.8413 15.96 81.5853 16.0987 81.3399 16.28C81.0946 16.4507 80.8866 16.648 80.7159 16.872C80.5453 17.096 80.4333 17.336 80.3799 17.592V19.976C80.5399 20.3387 80.7533 20.6693 81.0199 20.968C81.2866 21.2667 81.5959 21.5067 81.9479 21.688C82.2999 21.8587 82.6626 21.944 83.0359 21.944ZM92.5887 23.16C91.9594 23.16 91.3887 23.048 90.8767 22.824C90.3647 22.5893 89.922 22.2747 89.5487 21.88C89.1754 21.4747 88.8874 21.0107 88.6847 20.488C88.482 19.9653 88.3807 19.416 88.3807 18.84C88.3807 18.2533 88.482 17.6987 88.6847 17.176C88.8874 16.6533 89.1754 16.1947 89.5487 15.8C89.922 15.3947 90.3647 15.08 90.8767 14.856C91.3994 14.6213 91.97 14.504 92.5887 14.504C93.218 14.504 93.7887 14.6213 94.3007 14.856C94.8127 15.08 95.2554 15.3947 95.6287 15.8C96.0127 16.1947 96.306 16.6533 96.5087 17.176C96.7114 17.6987 96.8127 18.2533 96.8127 18.84C96.8127 19.416 96.7114 19.9653 96.5087 20.488C96.306 21.0107 96.018 21.4747 95.6447 21.88C95.2714 22.2747 94.8234 22.5893 94.3007 22.824C93.7887 23.048 93.218 23.16 92.5887 23.16ZM89.8207 18.856C89.8207 19.432 89.9434 19.9547 90.1887 20.424C90.4447 20.8933 90.7807 21.2667 91.1967 21.544C91.6127 21.8107 92.0767 21.944 92.5887 21.944C93.1007 21.944 93.5647 21.8053 93.9807 21.528C94.4074 21.2507 94.7434 20.8773 94.9887 20.408C95.2447 19.928 95.3727 19.4 95.3727 18.824C95.3727 18.248 95.2447 17.7253 94.9887 17.256C94.7434 16.7867 94.4074 16.4133 93.9807 16.136C93.5647 15.8587 93.1007 15.72 92.5887 15.72C92.0767 15.72 91.6127 15.864 91.1967 16.152C90.7807 16.4293 90.4447 16.8027 90.1887 17.272C89.9434 17.7413 89.8207 18.2693 89.8207 18.856ZM102.935 15.88C102.231 15.8907 101.607 16.072 101.063 16.424C100.529 16.7653 100.151 17.24 99.9268 17.848V23H98.5188V14.648H99.8308V16.584C100.119 16.008 100.497 15.544 100.967 15.192C101.447 14.8293 101.948 14.6267 102.471 14.584C102.577 14.584 102.668 14.584 102.743 14.584C102.817 14.584 102.881 14.5893 102.935 14.6V15.88ZM108.651 22.584C108.534 22.6373 108.374 22.7067 108.171 22.792C107.969 22.8773 107.734 22.952 107.467 23.016C107.201 23.08 106.918 23.112 106.619 23.112C106.278 23.112 105.963 23.0533 105.675 22.936C105.387 22.808 105.158 22.616 104.987 22.36C104.817 22.0933 104.731 21.7627 104.731 21.368V15.752H103.595V14.648H104.731V11.864H106.139V14.648H108.011V15.752H106.139V20.936C106.161 21.2347 106.262 21.4587 106.443 21.608C106.625 21.7467 106.838 21.816 107.083 21.816C107.361 21.816 107.617 21.768 107.851 21.672C108.086 21.576 108.241 21.5067 108.315 21.464L108.651 22.584ZM120.899 14.024C120.771 13.8747 120.601 13.7307 120.387 13.592C120.174 13.4533 119.934 13.3307 119.667 13.224C119.401 13.1067 119.107 13.016 118.787 12.952C118.478 12.8773 118.153 12.84 117.811 12.84C116.937 12.84 116.291 13.0053 115.875 13.336C115.459 13.6667 115.251 14.12 115.251 14.696C115.251 15.1013 115.358 15.4213 115.571 15.656C115.785 15.8907 116.11 16.0827 116.547 16.232C116.995 16.3813 117.561 16.536 118.243 16.696C119.033 16.8667 119.715 17.0747 120.291 17.32C120.867 17.5653 121.31 17.896 121.619 18.312C121.929 18.7173 122.083 19.2613 122.083 19.944C122.083 20.488 121.977 20.9627 121.763 21.368C121.561 21.7627 121.273 22.0933 120.899 22.36C120.526 22.616 120.089 22.808 119.587 22.936C119.086 23.0533 118.542 23.112 117.955 23.112C117.379 23.112 116.814 23.0533 116.259 22.936C115.715 22.808 115.198 22.6267 114.707 22.392C114.217 22.1573 113.758 21.864 113.331 21.512L114.019 20.296C114.19 20.4773 114.409 20.6587 114.675 20.84C114.953 21.0107 115.262 21.1707 115.603 21.32C115.955 21.4693 116.334 21.592 116.739 21.688C117.145 21.7733 117.561 21.816 117.987 21.816C118.798 21.816 119.427 21.672 119.875 21.384C120.323 21.0853 120.547 20.6533 120.547 20.088C120.547 19.6613 120.419 19.32 120.163 19.064C119.918 18.808 119.55 18.5947 119.059 18.424C118.569 18.2533 117.971 18.0827 117.267 17.912C116.499 17.72 115.854 17.512 115.331 17.288C114.809 17.0533 114.414 16.7493 114.147 16.376C113.891 16.0027 113.763 15.5173 113.763 14.92C113.763 14.1947 113.939 13.5813 114.291 13.08C114.643 12.5787 115.129 12.2 115.747 11.944C116.366 11.688 117.065 11.56 117.843 11.56C118.355 11.56 118.83 11.6133 119.267 11.72C119.715 11.8267 120.131 11.976 120.515 12.168C120.899 12.36 121.251 12.5893 121.571 12.856L120.899 14.024ZM127.449 23.16C126.82 23.16 126.244 23.048 125.721 22.824C125.209 22.5893 124.761 22.2747 124.377 21.88C124.004 21.4747 123.711 21.0107 123.497 20.488C123.295 19.9653 123.193 19.4107 123.193 18.824C123.193 18.0347 123.375 17.3147 123.737 16.664C124.1 16.0133 124.601 15.4907 125.241 15.096C125.892 14.7013 126.633 14.504 127.465 14.504C128.308 14.504 129.039 14.7067 129.657 15.112C130.287 15.5067 130.772 16.0293 131.113 16.68C131.465 17.32 131.641 18.0133 131.641 18.76C131.641 18.8667 131.636 18.9733 131.625 19.08C131.625 19.176 131.62 19.2507 131.609 19.304H124.681C124.724 19.848 124.873 20.3333 125.129 20.76C125.396 21.176 125.737 21.5067 126.153 21.752C126.569 21.9867 127.017 22.104 127.497 22.104C128.009 22.104 128.489 21.976 128.937 21.72C129.396 21.464 129.711 21.128 129.881 20.712L131.097 21.048C130.916 21.4533 130.644 21.816 130.281 22.136C129.929 22.456 129.508 22.7067 129.017 22.888C128.537 23.0693 128.015 23.16 127.449 23.16ZM124.633 18.328H130.329C130.287 17.784 130.132 17.304 129.865 16.888C129.599 16.472 129.257 16.1467 128.841 15.912C128.425 15.6773 127.967 15.56 127.465 15.56C126.975 15.56 126.521 15.6773 126.105 15.912C125.689 16.1467 125.348 16.472 125.081 16.888C124.825 17.304 124.676 17.784 124.633 18.328ZM137.622 15.88C136.918 15.8907 136.294 16.072 135.75 16.424C135.217 16.7653 134.838 17.24 134.614 17.848V23H133.206V14.648H134.518V16.584C134.806 16.008 135.185 15.544 135.654 15.192C136.134 14.8293 136.636 14.6267 137.158 14.584C137.265 14.584 137.356 14.584 137.43 14.584C137.505 14.584 137.569 14.5893 137.622 14.6V15.88ZM141.419 23L138.139 14.648H139.611L142.235 21.656L144.859 14.648H146.235L142.955 23H141.419ZM151.059 23.16C150.429 23.16 149.853 23.048 149.331 22.824C148.819 22.5893 148.371 22.2747 147.987 21.88C147.613 21.4747 147.32 21.0107 147.107 20.488C146.904 19.9653 146.803 19.4107 146.803 18.824C146.803 18.0347 146.984 17.3147 147.347 16.664C147.709 16.0133 148.211 15.4907 148.851 15.096C149.501 14.7013 150.243 14.504 151.075 14.504C151.917 14.504 152.648 14.7067 153.267 15.112C153.896 15.5067 154.381 16.0293 154.723 16.68C155.075 17.32 155.251 18.0133 155.251 18.76C155.251 18.8667 155.245 18.9733 155.235 19.08C155.235 19.176 155.229 19.2507 155.219 19.304H148.291C148.333 19.848 148.483 20.3333 148.739 20.76C149.005 21.176 149.347 21.5067 149.763 21.752C150.179 21.9867 150.627 22.104 151.107 22.104C151.619 22.104 152.099 21.976 152.547 21.72C153.005 21.464 153.32 21.128 153.491 20.712L154.707 21.048C154.525 21.4533 154.253 21.816 153.891 22.136C153.539 22.456 153.117 22.7067 152.627 22.888C152.147 23.0693 151.624 23.16 151.059 23.16ZM148.243 18.328H153.939C153.896 17.784 153.741 17.304 153.475 16.888C153.208 16.472 152.867 16.1467 152.451 15.912C152.035 15.6773 151.576 15.56 151.075 15.56C150.584 15.56 150.131 15.6773 149.715 15.912C149.299 16.1467 148.957 16.472 148.691 16.888C148.435 17.304 148.285 17.784 148.243 18.328ZM161.232 15.88C160.528 15.8907 159.904 16.072 159.36 16.424C158.826 16.7653 158.448 17.24 158.224 17.848V23H156.816V14.648H158.128V16.584C158.416 16.008 158.794 15.544 159.264 15.192C159.744 14.8293 160.245 14.6267 160.768 14.584C160.874 14.584 160.965 14.584 161.04 14.584C161.114 14.584 161.178 14.5893 161.232 14.6V15.88Z" fill="white"/>
</svg>
