<svg width="80" height="80" viewBox="0 0 80 80" fill="none" xmlns="http://www.w3.org/2000/svg">
<path d="M3.33334 41.2668V38.7332C3.33334 32.9985 3.33334 30.1312 5.05699 28.2266C6.78064 26.322 9.63375 26.0366 15.34 25.466L17.6321 25.2368C18.8042 25.1196 19.3903 25.061 19.9118 24.8139C20.4333 24.5667 20.8498 24.1502 21.6828 23.3173L33.7908 11.2092C34.1195 10.8805 34.2839 10.7161 34.4078 10.614C36.1922 9.14386 38.8949 9.89246 39.6686 12.0712C39.7223 12.2225 39.7787 12.448 39.8914 12.899L39.9093 12.9714C39.9667 13.2123 39.997 13.4589 39.9998 13.7065L40 13.7811V66.2189L39.9998 66.2936C39.997 66.5412 39.9667 66.7877 39.9093 67.0286L39.8914 67.1011C39.7787 67.5521 39.7223 67.7776 39.6686 67.9288C38.8949 70.1076 36.1922 70.8562 34.4078 69.386C34.284 69.284 34.1193 69.1193 33.7908 68.7908L21.6828 56.6828C20.8498 55.8498 20.4333 55.4333 19.9118 55.1862C19.3903 54.939 18.8042 54.8804 17.6321 54.7632L15.34 54.534C9.63375 53.9634 6.78064 53.6781 5.05699 51.7735C3.33334 49.8689 3.33334 47.0015 3.33334 41.2668Z" fill="#CA265B"/>
<path d="M46.6667 40.3131V39.687C46.6667 37.8272 46.6667 36.8974 47.0606 36.1607C47.2663 35.7762 47.5454 35.4357 47.8821 35.1587C48.5272 34.6279 49.439 34.4456 51.2626 34.0808C52.7665 33.78 53.5185 33.6297 54.0983 33.2175C54.4024 33.0014 54.6681 32.7357 54.8842 32.4316C55.2963 31.8518 55.4467 31.0999 55.7475 29.5959C56.1122 27.7723 56.2946 26.8605 56.8253 26.2155C57.1024 25.8787 57.4429 25.5996 57.8274 25.394C58.564 25 59.4939 25 61.3536 25H61.9797C63.8395 25 64.7693 25 65.506 25.394C65.8905 25.5996 66.231 25.8787 66.508 26.2155C67.0388 26.8605 67.2211 27.7723 67.5859 29.5959C67.8867 31.0999 68.037 31.8518 68.4492 32.4316C68.6653 32.7357 68.9309 33.0014 69.2351 33.2175C69.8149 33.6297 70.5668 33.78 72.0708 34.0808C73.8944 34.4456 74.8062 34.6279 75.4512 35.1587C75.788 35.4357 76.0671 35.7762 76.2728 36.1607C76.6667 36.8974 76.6667 37.8272 76.6667 39.687V40.3131C76.6667 42.1728 76.6667 43.1027 76.2728 43.8393C76.0671 44.2238 75.788 44.5643 75.4512 44.8414C74.8062 45.3721 73.8944 45.5545 72.0708 45.9192C70.5668 46.22 69.8149 46.3704 69.2351 46.7825C68.9309 46.9986 68.6653 47.2643 68.4492 47.5684C68.037 48.1482 67.8867 48.9002 67.5859 50.4041C67.2211 52.2277 67.0388 53.1395 66.508 53.7846C66.231 54.1213 65.8905 54.4004 65.506 54.6061C64.7693 55 63.8395 55 61.9797 55H61.3536C59.4939 55 58.564 55 57.8274 54.6061C57.4429 54.4004 57.1024 54.1213 56.8253 53.7846C56.2946 53.1395 56.1122 52.2277 55.7475 50.4041C55.4467 48.9002 55.2963 48.1482 54.8842 47.5684C54.6681 47.2643 54.4024 46.9986 54.0983 46.7825C53.5185 46.3704 52.7665 46.22 51.2626 45.9192C49.439 45.5545 48.5272 45.3721 47.8821 44.8414C47.5454 44.5643 47.2663 44.2238 47.0606 43.8393C46.6667 43.1027 46.6667 42.1728 46.6667 40.3131Z" fill="#CA265B"/>
<mask id="mask0_3_106" style="mask-type:alpha" maskUnits="userSpaceOnUse" x="0" y="0" width="80" height="80">
<path d="M3.33334 41.2668V38.7332C3.33334 32.9985 3.33334 30.1312 5.05699 28.2266C6.78064 26.322 9.63375 26.0366 15.34 25.466L17.6321 25.2368C18.8042 25.1196 19.3903 25.061 19.9118 24.8139C20.4333 24.5667 20.8498 24.1502 21.6828 23.3173L33.7908 11.2092C34.1195 10.8805 34.2839 10.7161 34.4078 10.614C36.1922 9.14386 38.8949 9.89246 39.6686 12.0712C39.7223 12.2225 39.7787 12.448 39.8914 12.899L39.9093 12.9714C39.9667 13.2123 39.997 13.4589 39.9998 13.7065L40 13.7811V66.2189L39.9998 66.2936C39.997 66.5412 39.9667 66.7877 39.9093 67.0286L39.8914 67.1011C39.7787 67.5521 39.7223 67.7776 39.6686 67.9288C38.8949 70.1076 36.1922 70.8562 34.4078 69.386C34.284 69.284 34.1193 69.1193 33.7908 68.7908L21.6828 56.6828C20.8498 55.8498 20.4333 55.4333 19.9118 55.1862C19.3903 54.939 18.8042 54.8804 17.6321 54.7632L15.34 54.534C9.63375 53.9634 6.78064 53.6781 5.05699 51.7735C3.33334 49.8689 3.33334 47.0015 3.33334 41.2668Z" fill="#CA265B"/>
<path d="M46.6667 40.3131V39.687C46.6667 37.8272 46.6667 36.8974 47.0606 36.1607C47.2663 35.7762 47.5454 35.4357 47.8821 35.1587C48.5272 34.6279 49.439 34.4456 51.2626 34.0808C52.7665 33.78 53.5185 33.6297 54.0983 33.2175C54.4024 33.0014 54.6681 32.7357 54.8842 32.4316C55.2963 31.8518 55.4467 31.0999 55.7475 29.5959C56.1122 27.7723 56.2946 26.8605 56.8253 26.2155C57.1024 25.8787 57.4429 25.5996 57.8274 25.394C58.564 25 59.4939 25 61.3536 25H61.9797C63.8395 25 64.7693 25 65.506 25.394C65.8905 25.5996 66.231 25.8787 66.508 26.2155C67.0388 26.8605 67.2211 27.7723 67.5859 29.5959C67.8867 31.0999 68.037 31.8518 68.4492 32.4316C68.6653 32.7357 68.9309 33.0014 69.2351 33.2175C69.8149 33.6297 70.5668 33.78 72.0708 34.0808C73.8944 34.4456 74.8062 34.6279 75.4512 35.1587C75.788 35.4357 76.0671 35.7762 76.2728 36.1607C76.6667 36.8974 76.6667 37.8272 76.6667 39.687V40.3131C76.6667 42.1728 76.6667 43.1027 76.2728 43.8393C76.0671 44.2238 75.788 44.5643 75.4512 44.8414C74.8062 45.3721 73.8944 45.5545 72.0708 45.9192C70.5668 46.22 69.8149 46.3704 69.2351 46.7825C68.9309 46.9986 68.6653 47.2643 68.4492 47.5684C68.037 48.1482 67.8867 48.9002 67.5859 50.4041C67.2211 52.2277 67.0388 53.1395 66.508 53.7846C66.231 54.1213 65.8905 54.4004 65.506 54.6061C64.7693 55 63.8395 55 61.9797 55H61.3536C59.4939 55 58.564 55 57.8274 54.6061C57.4429 54.4004 57.1024 54.1213 56.8253 53.7846C56.2946 53.1395 56.1122 52.2277 55.7475 50.4041C55.4467 48.9002 55.2963 48.1482 54.8842 47.5684C54.6681 47.2643 54.4024 46.9986 54.0983 46.7825C53.5185 46.3704 52.7665 46.22 51.2626 45.9192C49.439 45.5545 48.5272 45.3721 47.8821 44.8414C47.5454 44.5643 47.2663 44.2238 47.0606 43.8393C46.6667 43.1027 46.6667 42.1728 46.6667 40.3131Z" fill="#CA265B"/>
</mask>
<g mask="url(#mask0_3_106)">
<path d="M-13.3333 -13.3333H93.3333V46.6667C93.3333 46.6667 60.6358 43.8401 40 40C18.8934 36.0723 -13.3333 26.6667 -13.3333 26.6667V-13.3333Z" fill="url(#paint0_linear_3_106)" fill-opacity="0.2"/>
</g>
<defs>
<linearGradient id="paint0_linear_3_106" x1="40" y1="-13.3333" x2="40" y2="46.6667" gradientUnits="userSpaceOnUse">
<stop stop-color="white" stop-opacity="0"/>
<stop offset="1" stop-color="white"/>
</linearGradient>
</defs>
</svg>
